<svg xmlns="http://www.w3.org/2000/svg" width="249.808" height="249.079" viewBox="0 0 249.808 249.079">
  <g id="discussion" transform="translate(0 0)">
    <path id="Path_665" data-name="Path 665" d="M163.859,469.582h7.3v19.966h-7.3Zm0,0" transform="translate(-83.911 -240.47)" fill="#02c59e"/>
    <path id="Path_666" data-name="Path 666" d="M333.172,469.582h7.3v19.966h-7.3Zm0,0" transform="translate(-170.615 -240.47)" fill="#02c59e"/>
    <path id="Path_667" data-name="Path 667" d="M226.33,271.549H215.114V265.17a26.771,26.771,0,0,0,11.565-22.021V229.271a26.782,26.782,0,1,0-53.565,0V243.15a26.766,26.766,0,0,0,11.565,22.021v6.377h-11.22a23.529,23.529,0,0,0-22.953,18.54h-6.732V279.937a34.079,34.079,0,0,0,15.217-28.371v-18.26a34.087,34.087,0,1,0-68.174,0v18.26a34.082,34.082,0,0,0,15.217,28.371v10.151H99.3a23.529,23.529,0,0,0-22.953-18.54H65.13V265.17A26.766,26.766,0,0,0,76.695,243.15V229.271a26.782,26.782,0,1,0-53.565,0V243.15A26.771,26.771,0,0,0,34.695,265.17v6.379H23.479A23.5,23.5,0,0,0,0,295.028V351.1H7.305V295.028a16.191,16.191,0,0,1,16.173-16.175H35.064a15.215,15.215,0,0,0,29.7,0H76.35a16.208,16.208,0,0,1,15.4,11.235H90.122a29.773,29.773,0,0,0-29.739,29.739V351.1h7.305v-31.27a22.459,22.459,0,0,1,22.434-22.434h16.192a18.866,18.866,0,0,0,37.18,0h16.192a22.458,22.458,0,0,1,22.434,22.434V351.1h7.305v-31.27a29.773,29.773,0,0,0-29.739-29.739h-1.628a16.21,16.21,0,0,1,15.4-11.235h11.588a15.215,15.215,0,0,0,29.7,0H226.33A16.191,16.191,0,0,1,242.5,295.028V351.1h7.305V295.028a23.5,23.5,0,0,0-23.479-23.479ZM49.913,209.793a19.5,19.5,0,0,1,19.471,19.15,13.548,13.548,0,0,0-11.006-5.638H41.447a13.552,13.552,0,0,0-11,5.638,19.5,19.5,0,0,1,19.471-19.15Zm7.913,65.738a7.913,7.913,0,1,1-15.827,0v-6.793a26.839,26.839,0,0,0,15.827,0Zm-7.913-12.9a19.5,19.5,0,0,1-19.455-18.6l5.483-10.139a6.25,6.25,0,0,1,5.506-3.284h16.93a6.253,6.253,0,0,1,5.508,3.284l5.483,10.139a19.5,19.5,0,0,1-19.455,18.6Zm48.207-29.322a26.783,26.783,0,0,1,53.567,0v3.831l-.961-1.772a16.677,16.677,0,0,0-14.685-8.754H113.766a16.682,16.682,0,0,0-14.687,8.754l-.959,1.772Zm38.348,60.868a11.565,11.565,0,1,1-23.13,0V283.631a34.081,34.081,0,0,0,23.13,0ZM124.9,278.349a26.811,26.811,0,0,1-26.761-25.9l7.362-13.612a9.378,9.378,0,0,1,8.26-4.925h22.276a9.381,9.381,0,0,1,8.26,4.925l7.362,13.612a26.811,26.811,0,0,1-26.761,25.9ZM199.9,209.793a19.5,19.5,0,0,1,19.471,19.15,13.547,13.547,0,0,0-11-5.638h-16.93a13.553,13.553,0,0,0-11.006,5.638,19.5,19.5,0,0,1,19.471-19.15Zm7.913,65.738a7.913,7.913,0,1,1-15.827,0v-6.793a26.839,26.839,0,0,0,15.827,0Zm-7.913-12.9a19.5,19.5,0,0,1-19.455-18.6l5.483-10.139a6.255,6.255,0,0,1,5.508-3.284h16.93a6.25,6.25,0,0,1,5.506,3.284l5.483,10.139a19.5,19.5,0,0,1-19.455,18.6Zm0,0" transform="translate(0 -102.019)" fill="#02c59e"/>
    <path id="Path_668" data-name="Path 668" d="M466.555,413.191h7.3V460.67h-7.3Zm0,0" transform="translate(-238.92 -211.592)" fill="#02c59e"/>
    <path id="Path_669" data-name="Path 669" d="M30.477,413.191h7.3V460.67h-7.3Zm0,0" transform="translate(-15.607 -211.592)" fill="#02c59e"/>
    <path id="Path_670" data-name="Path 670" d="M33.869,79.834l11.887-21.4H66.738V0H1V58.434H21.98ZM8.3,7.305H59.435V51.131H41.458L33.869,64.792,26.278,51.131H8.3Zm0,0" transform="translate(-0.512)" fill="#02c59e"/>
    <path id="Path_671" data-name="Path 671" d="M377.262,0V58.435h20.982l11.889,21.4,11.887-21.4H443V0ZM435.7,51.131H417.722l-7.589,13.661-7.591-13.661H384.567V7.305H435.7Zm0,0" transform="translate(-193.193 0)" fill="#02c59e"/>
    <path id="Path_672" data-name="Path 672" d="M201.812,79.834l11.887-21.4h40.216V0H149.707V58.434h40.216Zm-44.8-72.528h89.6V51.131H209.4l-7.589,13.661-7.591-13.661H157.013Zm0,0" transform="translate(-76.664)" fill="#02c59e"/>
    <path id="Path_673" data-name="Path 673" d="M63.375,39.922H82.853v7.305H63.375Zm0,0" transform="translate(-32.454 -20.444)" fill="#02c59e"/>
    <path id="Path_674" data-name="Path 674" d="M33.434,39.922h7.305v7.305H33.434Zm0,0" transform="translate(-17.121 -20.444)" fill="#02c59e"/>
    <path id="Path_675" data-name="Path 675" d="M33.434,69.863H52.912v7.305H33.434Zm0,0" transform="translate(-17.121 -35.777)" fill="#02c59e"/>
    <path id="Path_676" data-name="Path 676" d="M88.328,69.863h7.3v7.305h-7.3Zm0,0" transform="translate(-45.232 -35.777)" fill="#02c59e"/>
    <path id="Path_677" data-name="Path 677" d="M439.641,39.922h19.478v7.305H439.641Zm0,0" transform="translate(-225.137 -20.444)" fill="#02c59e"/>
    <path id="Path_678" data-name="Path 678" d="M409.7,39.922H417v7.305H409.7Zm0,0" transform="translate(-209.804 -20.444)" fill="#02c59e"/>
    <path id="Path_679" data-name="Path 679" d="M409.7,69.863h19.478v7.305H409.7Zm0,0" transform="translate(-209.804 -35.777)" fill="#02c59e"/>
    <path id="Path_680" data-name="Path 680" d="M464.594,69.863h7.3v7.305h-7.3Zm0,0" transform="translate(-237.915 -35.777)" fill="#02c59e"/>
    <path id="Path_681" data-name="Path 681" d="M271.469,34.934h7.305v7.3h-7.305Zm0,0" transform="translate(-139.017 -17.889)" fill="#02c59e"/>
    <path id="Path_682" data-name="Path 682" d="M301.41,34.934h12.175v7.3H301.41Zm0,0" transform="translate(-154.35 -17.889)" fill="#02c59e"/>
    <path id="Path_683" data-name="Path 683" d="M186.637,34.934h34.087v7.3H186.637Zm0,0" transform="translate(-95.576 -17.889)" fill="#02c59e"/>
    <path id="Path_684" data-name="Path 684" d="M311.391,65.871H318.7v7.305h-7.305Zm0,0" transform="translate(-159.461 -33.732)" fill="#02c59e"/>
    <path id="Path_685" data-name="Path 685" d="M186.637,65.871h19.478v7.305H186.637Zm0,0" transform="translate(-95.576 -33.732)" fill="#02c59e"/>
    <path id="Path_686" data-name="Path 686" d="M241.527,65.871H268.31v7.305H241.527Zm0,0" transform="translate(-123.684 -33.732)" fill="#02c59e"/>
  </g>
</svg>
