<svg xmlns="http://www.w3.org/2000/svg" width="36.631" height="49.952" viewBox="0 0 36.631 49.952">
  <path id="flag_1_" data-name="flag(1)" d="M44.108,2.619c-.382-.154-9.457-3.706-16.517.037C22,5.626,12.175,3.4,9.665,2.754V.833A.833.833,0,1,0,8,.833v2.5c0,.012.006.022.007.033S8,3.382,8,3.392V49.119a.833.833,0,1,0,1.665,0V29.451a44.955,44.955,0,0,0,10.3,1.359A18.245,18.245,0,0,0,28.371,29.1c6.371-3.381,15.032,0,15.119.037a.834.834,0,0,0,1.141-.773V3.392A.832.832,0,0,0,44.108,2.619ZM42.966,27.195c-2.714-.864-9.7-2.578-15.376.437-5.594,2.969-15.411.743-17.925.1V4.475c3.208.8,12.805,2.783,18.706-.347,5.466-2.9,12.619-.82,14.6-.151Z" transform="translate(-8)"/>
</svg>
