<svg xmlns="http://www.w3.org/2000/svg" width="45.348" height="44.999" viewBox="0 0 45.348 44.999">
  <g id="justify" transform="translate(0 -0.088)">
    <path id="Path_108" data-name="Path 108" d="M44.358,23.807H.989a.989.989,0,1,1,0-1.979H44.358a.989.989,0,1,1,0,1.979Z" transform="translate(0 21.281)"/>
    <path id="Path_109" data-name="Path 109" d="M44.358,16.561H.989a.989.989,0,0,1,0-1.979H44.358a.989.989,0,1,1,0,1.979Z" transform="translate(0 14.188)"/>
    <path id="Path_110" data-name="Path 110" d="M44.358,9.314H.989a.989.989,0,1,1,0-1.979H44.358a.989.989,0,1,1,0,1.979Z" transform="translate(0 7.094)"/>
    <path id="Path_111" data-name="Path 111" d="M44.358,2.067H.989a.989.989,0,0,1,0-1.979H44.358a.989.989,0,1,1,0,1.979Z"/>
  </g>
</svg>
