<svg xmlns="http://www.w3.org/2000/svg" width="44" height="54" viewBox="0 0 44 54">
  <g id="locked" transform="translate(-5)">
    <path id="Path_1" data-name="Path 1" d="M43,20.113V14.5C43,6.505,35.822,0,27,0S11,6.505,11,14.5v5.613A7.235,7.235,0,0,0,5,27.23V46.772A7.237,7.237,0,0,0,12.229,54H41.771A7.237,7.237,0,0,0,49,46.771V27.229A7.235,7.235,0,0,0,43,20.113ZM13,14.5C13,7.607,19.28,2,27,2S41,7.607,41,14.5V20H13ZM47,46.771A5.235,5.235,0,0,1,41.771,52H12.229A5.235,5.235,0,0,1,7,46.771V27.229A5.235,5.235,0,0,1,12.229,22H41.771A5.235,5.235,0,0,1,47,27.229Z" fill="#172735"/>
    <path id="Path_2" data-name="Path 2" d="M27,28a4,4,0,0,0-4,4v6a4,4,0,0,0,8,0V32A4,4,0,0,0,27,28Zm2,10a2,2,0,0,1-4,0V32a2,2,0,0,1,4,0Z"/>
  </g>
</svg>
