<svg xmlns="http://www.w3.org/2000/svg" width="52.438" height="52.435" viewBox="0 0 52.438 52.435">
  <g id="Group_164" data-name="Group 164" transform="translate(0 0)">
    <path id="Path_104" data-name="Path 104" d="M52.439,20.113c0-.018-.01-.034-.01-.052a.834.834,0,0,0-.036-.178.9.9,0,0,0-.05-.151.843.843,0,0,0-.087-.131.858.858,0,0,0-.119-.138c-.014-.012-.02-.029-.035-.04l-8.4-6.528V6.129a2.622,2.622,0,0,0-2.622-2.622H31.606L27.814.563a2.593,2.593,0,0,0-3.187,0L20.833,3.507H11.362A2.622,2.622,0,0,0,8.74,6.129v6.766l-8.4,6.528c-.015.011-.021.028-.035.04a.858.858,0,0,0-.119.138.836.836,0,0,0-.087.131.862.862,0,0,0-.05.151.828.828,0,0,0-.036.175c0,.018-.01.033-.01.052V49.828a2.591,2.591,0,0,0,.146.826.866.866,0,0,0,.961,1.311,2.6,2.6,0,0,0,1.514.485h47.2a2.6,2.6,0,0,0,1.518-.492.862.862,0,0,0,.959-1.3,2.593,2.593,0,0,0,.145-.826V20.113ZM25.7,1.942a.838.838,0,0,1,1.043,0l2.016,1.565H23.685ZM2.839,50.7,25.7,32.948a.841.841,0,0,1,1.042,0L49.6,50.7Zm47.852-1.365L27.812,31.568a2.592,2.592,0,0,0-3.185,0L1.748,49.337V21.444L16.07,32.565a.874.874,0,0,0,1.072-1.382l-14.55-11.3L8.74,15.107v6.753a.874.874,0,1,0,1.748,0V6.129a.874.874,0,0,1,.874-.874H41.077a.874.874,0,0,1,.874.874V21.861a.874.874,0,1,0,1.748,0V15.107l6.148,4.777L35.271,31.2a.874.874,0,1,0,1.072,1.381L50.691,21.444Z" transform="translate(-0.001 -0.015)"/>
    <path id="Path_105" data-name="Path 105" d="M163,95.592h17.48a.874.874,0,0,0,0-1.748H163a.874.874,0,0,0,0,1.748Z" transform="translate(-145.52 -84.234)"/>
    <path id="Path_106" data-name="Path 106" d="M181.353,145.918a.874.874,0,0,0-.874-.874H163a.874.874,0,1,0,0,1.748h17.48A.874.874,0,0,0,181.353,145.918Z" transform="translate(-145.52 -130.19)"/>
    <path id="Path_107" data-name="Path 107" d="M265.606,197.118a.874.874,0,0,0-.874-.874h-7.866a.874.874,0,0,0,0,1.748h7.866A.874.874,0,0,0,265.606,197.118Z" transform="translate(-229.773 -176.146)"/>
  </g>
</svg>
