<svg id="reading" xmlns="http://www.w3.org/2000/svg" width="270.884" height="270.884" viewBox="0 0 270.884 270.884">
  <g id="Group_141" data-name="Group 141">
    <g id="Group_140" data-name="Group 140">
      <path id="Path_91" data-name="Path 91" d="M266.37,167.045H257.34V99.324a4.517,4.517,0,0,0-1.508-3.368,4.416,4.416,0,0,0-3.521-1.115l-13.03,1.5V81.265a4.516,4.516,0,0,0-5.124-4.474L180.54,84.105a53.511,53.511,0,0,0,9.079-29.928,54.177,54.177,0,0,0-108.354,0,53.511,53.511,0,0,0,9.079,29.928L36.727,76.791A4.516,4.516,0,0,0,31.6,81.265V96.345l-13.025-1.5a4.422,4.422,0,0,0-3.521,1.115,4.505,4.505,0,0,0-1.512,3.368v67.721H4.515A4.513,4.513,0,0,0,0,171.56v54.177a4.513,4.513,0,0,0,4.515,4.515h9.029v22.574a4.509,4.509,0,0,0,4,4.483l117.383,13.544a4.283,4.283,0,0,0,1.038,0l117.383-13.544a4.509,4.509,0,0,0,4-4.483V230.252h9.029a4.514,4.514,0,0,0,4.515-4.515V171.56A4.513,4.513,0,0,0,266.37,167.045ZM230.252,86.439V97.383L139.957,107.8V98.746l30.271-4.126h0ZM9.029,221.222V176.075h9.029a22.574,22.574,0,1,1,0,45.147Zm121.9,40.082L22.574,248.8V229.927c.352-.05.691-.135,1.034-.2.424-.077.849-.149,1.264-.239.582-.126,1.151-.284,1.72-.442.393-.108.786-.212,1.174-.339.6-.194,1.174-.415,1.756-.646.339-.131.682-.248,1.011-.393.673-.289,1.323-.619,1.973-.953.221-.113.451-.212.673-.334q1.293-.7,2.51-1.526c.14-.095.266-.2.4-.293.659-.461,1.309-.939,1.932-1.445.257-.212.5-.442.754-.664.479-.42.957-.84,1.413-1.287.271-.266.524-.546.781-.822.406-.429.813-.862,1.2-1.314.257-.3.5-.619.745-.935.357-.451.7-.907,1.034-1.382.235-.339.461-.682.682-1.025q.46-.711.88-1.449c.208-.366.406-.727.6-1.1.262-.5.506-1.011.74-1.53.172-.379.343-.763.5-1.151.217-.537.411-1.084.6-1.634.131-.388.271-.777.388-1.169.172-.582.316-1.174.456-1.77.09-.384.194-.758.271-1.147.131-.664.221-1.341.307-2.018.045-.334.1-.659.14-.993.09-1,.149-2.036.149-3.079s-.059-2.077-.158-3.093c-.032-.334-.095-.664-.14-.993-.086-.677-.176-1.354-.307-2.014-.077-.388-.181-.768-.271-1.151-.14-.591-.28-1.187-.456-1.765-.117-.4-.257-.781-.388-1.169-.19-.551-.384-1.1-.6-1.634-.158-.388-.33-.768-.5-1.151-.235-.519-.479-1.029-.74-1.53-.194-.37-.393-.74-.6-1.1-.28-.492-.573-.971-.88-1.445-.226-.348-.447-.691-.686-1.029-.33-.47-.677-.926-1.029-1.377-.248-.316-.488-.628-.749-.935-.384-.451-.786-.885-1.2-1.314-.262-.275-.515-.555-.781-.822-.456-.447-.935-.867-1.413-1.287-.253-.221-.492-.451-.754-.664-.614-.506-1.26-.975-1.91-1.431-.144-.1-.275-.212-.424-.312-.808-.546-1.648-1.052-2.506-1.526-.217-.117-.451-.217-.673-.334-.646-.334-1.3-.659-1.973-.953-.33-.144-.673-.262-1.011-.393-.582-.226-1.16-.451-1.756-.646-.388-.126-.781-.226-1.174-.339-.564-.158-1.133-.312-1.711-.442-.42-.095-.849-.167-1.273-.244-.339-.054-.677-.14-1.025-.19V104.39l13.025,1.5,8.813,1.016,86.516,9.987Zm0-153.5L40.633,97.383V86.439l60.023,8.185h0l30.267,4.126Zm4.515-17.549L103.36,85.875a44.653,44.653,0,0,1-13.066-31.7,45.147,45.147,0,0,1,90.295,0,44.653,44.653,0,0,1-13.066,31.7ZM248.311,248.8,139.957,261.3V116.9l86.511-9.982,8.813-1.016,13.03-1.508v63.017a31.56,31.56,0,0,0,0,62.484Zm13.544-27.576h-9.029a22.574,22.574,0,0,1,0-45.147h9.029Z" fill="#9e6ff1"/>
    </g>
  </g>
  <g id="Group_143" data-name="Group 143" transform="translate(153.501 121.903)">
    <g id="Group_142" data-name="Group 142">
      <path id="Path_92" data-name="Path 92" d="M351.739,217.132a4.554,4.554,0,0,0-3.549-1.093l-72.236,9.029A4.511,4.511,0,0,0,272,229.548v36.118a4.511,4.511,0,0,0,4.515,4.515,4.665,4.665,0,0,0,.56-.036l72.236-9.029a4.511,4.511,0,0,0,3.955-4.479V220.519A4.517,4.517,0,0,0,351.739,217.132Zm-7.5,35.517-63.206,7.9V233.535l63.206-7.9Z" transform="translate(-272 -216.009)" fill="#9e6ff1"/>
    </g>
  </g>
</svg>
