<svg id="cogwheel" xmlns="http://www.w3.org/2000/svg" width="48" height="48" viewBox="0 0 48 48">
  <path id="Path_79" data-name="Path 79" d="M45.793,19.538H43.746a20.015,20.015,0,0,0-2.627-6.346l1.446-1.447a2.21,2.21,0,0,0,0-3.122L39.376,5.435a2.207,2.207,0,0,0-3.122,0L34.808,6.882a20.015,20.015,0,0,0-6.346-2.627V2.207A2.21,2.21,0,0,0,26.254,0H21.746a2.21,2.21,0,0,0-2.207,2.207V4.254a20.015,20.015,0,0,0-6.346,2.627L11.745,5.435a2.207,2.207,0,0,0-3.122,0L5.435,8.624a2.21,2.21,0,0,0,0,3.122l1.447,1.447a20.015,20.015,0,0,0-2.627,6.346H2.207A2.21,2.21,0,0,0,0,21.746v4.509a2.21,2.21,0,0,0,2.207,2.207H4.255a20.014,20.014,0,0,0,2.627,6.346L5.435,36.255a2.207,2.207,0,0,0,0,3.122l3.188,3.188a2.207,2.207,0,0,0,3.122,0l1.447-1.447a20.016,20.016,0,0,0,6.346,2.627v2.047A2.21,2.21,0,0,0,21.746,48h4.509a2.21,2.21,0,0,0,2.207-2.207V43.746a20.016,20.016,0,0,0,6.346-2.627l1.446,1.447a2.207,2.207,0,0,0,3.122,0l3.188-3.188a2.207,2.207,0,0,0,0-3.122l-1.446-1.446a20.016,20.016,0,0,0,2.627-6.346h2.047A2.21,2.21,0,0,0,48,26.255V21.746a2.21,2.21,0,0,0-2.207-2.208Zm.8,6.716a.8.8,0,0,1-.8.8H43.173a.7.7,0,0,0-.691.57,18.638,18.638,0,0,1-2.851,6.886.7.7,0,0,0,.086.892l1.851,1.851a.8.8,0,0,1,0,1.129L38.38,41.568a.8.8,0,0,1-1.129,0L35.4,39.717a.7.7,0,0,0-.892-.086,18.639,18.639,0,0,1-6.886,2.851.7.7,0,0,0-.57.691v2.619a.8.8,0,0,1-.8.8H21.746a.8.8,0,0,1-.8-.8V43.173a.7.7,0,0,0-.57-.691,18.639,18.639,0,0,1-6.886-2.851.7.7,0,0,0-.892.086l-1.851,1.851a.8.8,0,0,1-1.129,0L6.432,38.38a.8.8,0,0,1,0-1.129L8.283,35.4a.7.7,0,0,0,.086-.892,18.638,18.638,0,0,1-2.851-6.886.7.7,0,0,0-.691-.57H2.207a.8.8,0,0,1-.8-.8V21.746a.8.8,0,0,1,.8-.8H4.827a.7.7,0,0,0,.691-.57,18.64,18.64,0,0,1,2.851-6.886.7.7,0,0,0-.086-.892L6.432,10.749a.8.8,0,0,1,0-1.129L9.62,6.432a.8.8,0,0,1,1.129,0L12.6,8.283a.7.7,0,0,0,.892.086,18.64,18.64,0,0,1,6.886-2.851.7.7,0,0,0,.57-.692V2.207a.8.8,0,0,1,.8-.8h4.509a.8.8,0,0,1,.8.8V4.827a.7.7,0,0,0,.57.692,18.639,18.639,0,0,1,6.886,2.851.7.7,0,0,0,.892-.086l1.851-1.851a.8.8,0,0,1,1.129,0L41.568,9.62a.8.8,0,0,1,0,1.129L39.718,12.6a.7.7,0,0,0-.086.892,18.639,18.639,0,0,1,2.851,6.886.7.7,0,0,0,.691.57h2.619a.8.8,0,0,1,.8.8v4.509Z" fill="#172735"/>
  <path id="Path_80" data-name="Path 80" d="M105.409,118.231a12.829,12.829,0,0,1,17.811-11.815.7.7,0,1,0,.549-1.3,14.233,14.233,0,0,0-16.6,22.063.7.7,0,0,0,1.095-.887,12.851,12.851,0,0,1-2.852-8.063Z" transform="translate(-94.231 -94.231)"/>
  <path id="Path_81" data-name="Path 81" d="M178.874,192.077a.7.7,0,0,0-.375.923,12.824,12.824,0,0,1-19.878,14.956.7.7,0,1,0-.886,1.1,14.235,14.235,0,0,0,22.062-16.6A.7.7,0,0,0,178.874,192.077Z" transform="translate(-142.682 -173.984)"/>
  <path id="Path_82" data-name="Path 82" d="M338.77,137.246a12.934,12.934,0,0,1,1.916,1.916.7.7,0,0,0,1.1-.886,14.338,14.338,0,0,0-2.125-2.125.7.7,0,1,0-.886,1.1Z" transform="translate(-306.712 -123.219)"/>
  <path id="Path_83" data-name="Path 83" d="M147.225,136a11.225,11.225,0,1,0,11.225,11.225A11.238,11.238,0,0,0,147.225,136Zm0,21.041a9.816,9.816,0,1,1,9.816-9.816A9.827,9.827,0,0,1,147.225,157.041Z" transform="translate(-123.225 -123.225)"/>
</svg>
