<svg xmlns="http://www.w3.org/2000/svg" width="54" height="51.709" viewBox="0 0 54 51.709">
  <path id="Path_31" data-name="Path 31" d="M12.531,61.682a3.589,3.589,0,0,1-3.412-4.695l4.723-14.535L1.479,33.471a3.586,3.586,0,0,1,2.108-6.488H18.867l4.722-14.533a3.586,3.586,0,0,1,6.82,0l4.724,14.533h15.28a3.586,3.586,0,0,1,2.109,6.486L40.159,42.452l4.722,14.534A3.579,3.579,0,0,1,43.58,61a3.641,3.641,0,0,1-4.217,0L27,52.015,14.637,61A3.562,3.562,0,0,1,12.531,61.682ZM3.586,30.057a.513.513,0,0,0-.3.927l14.17,10.294L12.043,57.937a.512.512,0,0,0,.187.573.432.432,0,0,0,.6,0L27,48.214l14.169,10.3a.436.436,0,0,0,.6,0,.512.512,0,0,0,.186-.574L36.545,41.279,50.715,30.984a.512.512,0,0,0-.3-.927H32.9L27.488,13.4a.533.533,0,0,0-.976,0L21.1,30.057H3.586Z" transform="translate(0 -9.973)" fill="#172735"/>
</svg>
