<svg xmlns="http://www.w3.org/2000/svg" width="54" height="49.5" viewBox="0 0 54 49.5">
  <path id="users" d="M49.513,41.1l-8.6-4.3A2.367,2.367,0,0,1,39.6,34.673V31.63c.206-.252.423-.539.647-.856a20.6,20.6,0,0,0,2.659-5.219A3.571,3.571,0,0,0,45,22.3V18.7a3.589,3.589,0,0,0-.9-2.362V11.55a8.068,8.068,0,0,0-1.883-5.873C40.369,3.569,37.369,2.5,33.3,2.5s-7.069,1.069-8.917,3.177A7.817,7.817,0,0,0,22.525,10,11.69,11.69,0,0,0,17.1,8.8c-9.35,0-9.895,7.969-9.9,8.1v4.121a3.133,3.133,0,0,0-.9,2.1v3.109a3.212,3.212,0,0,0,1.18,2.489,13.793,13.793,0,0,0,3.28,5.656V36.84a1.955,1.955,0,0,1-1.054,1.723L3.718,42.32A7.131,7.131,0,0,0,0,48.583V52H54V48.361A8.076,8.076,0,0,0,49.513,41.1ZM12.6,48.186V50.2H1.8V48.583a5.357,5.357,0,0,1,2.827-4.71l5.987-3.756a3.729,3.729,0,0,0,1.945-3.277V33.609l-.286-.267a11.989,11.989,0,0,1-3.121-5.36l-.082-.356-.308-.2a1.43,1.43,0,0,1-.661-1.2V23.118a1.573,1.573,0,0,1,.6-1.057l.3-.267,0-4.842c.016-.258.485-6.352,8.1-6.352a9.37,9.37,0,0,1,5.4,1.48v4.258a3.589,3.589,0,0,0-.9,2.362v3.6a3.619,3.619,0,0,0,.091.8c.024.1.073.2.106.3a3.555,3.555,0,0,0,.158.45l0,0a3.606,3.606,0,0,0,.989,1.239c0,.017.01.032.014.049.054.206.111.411.172.612l.073.235c.013.041.028.084.041.125.031.1.062.193.094.289.054.157.111.32.176.5.028.074.059.14.087.213.074.188.148.37.225.55.019.043.035.09.054.132l.05.113c.023.052.048.1.071.15.088.193.175.379.265.559.014.029.028.06.042.089.057.112.113.219.17.327.1.185.193.36.288.529.047.083.093.164.139.242.13.221.253.425.373.614.026.04.051.083.076.121.218.338.407.611.563.824l.112.153.064.087v2.978a2.378,2.378,0,0,1-1.239,2.088l-2.381,1.3-.415-.037-.169.355-5.063,2.762A8.119,8.119,0,0,0,12.6,48.186ZM52.2,50.2H14.4V48.186a6.315,6.315,0,0,1,3.293-5.548l8.029-4.379A4.179,4.179,0,0,0,27.9,34.589V30.973h0l-.175-.209-.034-.04s-.058-.07-.149-.189l-.017-.022c-.048-.062-.1-.137-.167-.226l0,0c-.134-.186-.3-.428-.49-.72l-.013-.02c-.088-.138-.182-.288-.277-.447l-.022-.036c-.2-.341-.419-.727-.635-1.155v0c-.114-.229-.229-.471-.34-.722h0l-.047-.1h0c-.049-.112-.1-.23-.149-.352l-.054-.135c-.047-.118-.094-.237-.145-.373-.092-.245-.178-.5-.261-.764l-.049-.16c-.005-.018-.012-.036-.017-.055-.085-.284-.166-.575-.234-.874l-.082-.356-.307-.2A1.794,1.794,0,0,1,23.4,22.3V18.7a1.776,1.776,0,0,1,.6-1.327l.3-.267V11.181l-.024-.019a6.23,6.23,0,0,1,1.461-4.3C27.228,5.162,29.773,4.3,33.3,4.3s6.054.856,7.547,2.545a6.335,6.335,0,0,1,1.461,4.537L42.3,17.105l.3.268a1.773,1.773,0,0,1,.6,1.327v3.6a1.79,1.79,0,0,1-1.28,1.709l-.448.138-.144.446a18.841,18.841,0,0,1-2.551,5.142,11.841,11.841,0,0,1-.753.971l-.224.256v3.712a4.156,4.156,0,0,0,2.309,3.738l8.6,4.3A6.284,6.284,0,0,1,52.2,48.361Z" transform="translate(0 -2.5)" fill="#172735"/>
</svg>
