<svg xmlns="http://www.w3.org/2000/svg" width="56.475" height="56.475" viewBox="0 0 56.475 56.475">
  <path id="Path_148" data-name="Path 148" d="M28.237,0A28.237,28.237,0,1,0,56.475,28.237,28.237,28.237,0,0,0,28.237,0ZM41.119,43.068a48.189,48.189,0,0,0,2.166-13.889H54.569a26.238,26.238,0,0,1-6.6,16.5A33.711,33.711,0,0,0,41.119,43.068ZM8.506,45.682a26.238,26.238,0,0,1-6.6-16.5H13.19a48.188,48.188,0,0,0,2.165,13.889A33.65,33.65,0,0,0,8.506,45.682Zm6.849-32.274A48.189,48.189,0,0,0,13.19,27.3H1.906a26.238,26.238,0,0,1,6.6-16.5A33.714,33.714,0,0,0,15.355,13.407ZM27.3,27.3H15.072A46.355,46.355,0,0,1,17.2,13.861,49.829,49.829,0,0,0,27.3,15.034Zm0,1.882V41.441A49.836,49.836,0,0,0,17.2,42.614a46.363,46.363,0,0,1-2.129-13.435Zm1.882,0H41.4a46.354,46.354,0,0,1-2.13,13.435,49.829,49.829,0,0,0-10.094-1.173Zm0-1.882V15.034a49.836,49.836,0,0,0,10.095-1.173A46.364,46.364,0,0,1,41.4,27.3Zm0-14.145V1.957c3.837.545,7.223,4.386,9.455,10.116A48.066,48.066,0,0,1,29.179,13.151ZM27.3,1.957V13.151a48.066,48.066,0,0,1-9.455-1.079C20.073,6.343,23.459,2.5,27.3,1.957Zm0,41.367V54.518c-3.837-.545-7.223-4.386-9.455-10.116A48.065,48.065,0,0,1,27.3,43.323Zm1.882,11.195V43.323A48.065,48.065,0,0,1,38.633,44.4C36.4,50.132,33.015,53.973,29.179,54.518ZM43.285,27.3A48.187,48.187,0,0,0,41.12,13.407a33.68,33.68,0,0,0,6.849-2.614,26.236,26.236,0,0,1,6.6,16.5ZM46.614,9.372a32.518,32.518,0,0,1-6.124,2.259,22.61,22.61,0,0,0-5.715-8.924A26.342,26.342,0,0,1,46.614,9.372ZM15.985,11.631A32.512,32.512,0,0,1,9.861,9.372,26.339,26.339,0,0,1,21.7,2.7a22.606,22.606,0,0,0-5.715,8.924ZM9.861,47.1a32.512,32.512,0,0,1,6.124-2.259A22.61,22.61,0,0,0,21.7,53.768,26.342,26.342,0,0,1,9.861,47.1ZM40.49,44.844A32.512,32.512,0,0,1,46.614,47.1a26.339,26.339,0,0,1-11.84,6.668,22.606,22.606,0,0,0,5.715-8.924Zm0,0" fill="#fff"/>
</svg>
